<svg xmlns="http://www.w3.org/2000/svg" xmlns:xlink="http://www.w3.org/1999/xlink" width="500" zoomAndPan="magnify" viewBox="0 0 375 374.999991" height="500" preserveAspectRatio="xMidYMid meet" version="1.0"><defs><clipPath id="6de06298c2"><path d="M 1 9 L 375 9 L 375 366.9375 L 1 366.9375 Z M 1 9 " clip-rule="nonzero"/></clipPath></defs><g clip-path="url(#6de06298c2)"><path fill="#00bf63" d="M 60.167969 142.707031 C 57.894531 127.585938 55.050781 113.773438 43.113281 104.222656 C 31.175781 94.671875 19.464844 85.972656 7.414062 77.21875 C 1.730469 73.183594 0.195312 70.796875 2.296875 67.5 C 4.402344 64.203125 8.4375 63.464844 13.667969 67.160156 C 28.390625 78.015625 43.226562 88.875 56.984375 100.867188 C 67.386719 109.90625 69.488281 123.605469 72.273438 136.394531 C 72.617188 138.160156 72.898438 139.921875 73.355469 142.59375 L 93.476562 144.355469 C 98.964844 144.59375 104.402344 145.238281 109.792969 146.289062 C 110.707031 146.496094 111.605469 146.753906 112.488281 147.0625 C 113.371094 147.371094 114.238281 147.726562 115.082031 148.128906 C 115.925781 148.535156 116.746094 148.980469 117.542969 149.476562 C 118.339844 149.96875 119.105469 150.503906 119.84375 151.082031 C 120.578125 151.660156 121.28125 152.273438 121.953125 152.929688 C 122.621094 153.582031 123.253906 154.273438 123.847656 154.996094 C 124.441406 155.722656 124.992188 156.476562 125.503906 157.261719 C 126.015625 158.042969 126.480469 158.855469 126.902344 159.691406 C 127.324219 160.527344 127.699219 161.382812 128.027344 162.261719 C 128.355469 163.136719 128.636719 164.027344 128.867188 164.9375 C 129.097656 165.84375 129.273438 166.761719 129.40625 167.691406 C 129.535156 168.617188 129.613281 169.546875 129.636719 170.484375 C 129.664062 171.421875 129.640625 172.355469 129.566406 173.289062 C 129.488281 174.222656 129.363281 175.148438 129.1875 176.066406 C 129.007812 176.988281 128.78125 177.894531 128.503906 178.789062 C 128.226562 179.683594 127.902344 180.558594 127.527344 181.417969 C 126.4375 183.414062 126.058594 185.535156 126.390625 187.785156 C 131.28125 201.539062 130.882812 205.179688 121.902344 217.285156 C 123.144531 218.953125 124.1875 220.738281 125.027344 222.640625 C 125.867188 224.546875 126.484375 226.519531 126.878906 228.5625 C 127.273438 230.605469 127.433594 232.664062 127.359375 234.742188 C 127.289062 236.824219 126.984375 238.867188 126.449219 240.878906 L 140.089844 229.507812 C 141.285156 228.484375 142.480469 227.460938 143.730469 226.496094 C 146.683594 224.277344 149.8125 223.085938 152.882812 226.15625 C 155.949219 229.222656 154.699219 232.125 151.0625 235.703125 L 129.007812 256.964844 C 128.503906 257.367188 128.070312 257.835938 127.699219 258.359375 C 127.328125 258.886719 127.039062 259.453125 126.828125 260.0625 C 126.617188 260.671875 126.492188 261.296875 126.457031 261.9375 C 126.421875 262.582031 126.476562 263.214844 126.617188 263.84375 C 128.722656 279.363281 125.425781 284.589844 110.929688 290.164062 C 109.992188 290.582031 109.082031 291.054688 108.199219 291.582031 C 108.113281 292.144531 108.082031 292.703125 108.105469 293.269531 C 108.128906 293.835938 108.210938 294.394531 108.347656 294.941406 C 108.480469 295.492188 108.671875 296.023438 108.914062 296.535156 C 109.15625 297.042969 109.449219 297.527344 109.785156 297.980469 C 110.125 298.433594 110.507812 298.847656 110.929688 299.226562 C 111.351562 299.601562 111.804688 299.933594 112.296875 300.21875 C 112.785156 300.503906 113.296875 300.738281 113.832031 300.921875 C 114.367188 301.101562 114.914062 301.230469 115.476562 301.304688 C 116.660156 301.710938 117.878906 301.9375 119.132812 301.988281 C 120.382812 302.035156 121.613281 301.902344 122.828125 301.589844 C 124.039062 301.277344 125.183594 300.796875 126.253906 300.148438 C 127.324219 299.5 128.28125 298.710938 129.121094 297.78125 C 141.96875 282.601562 154.699219 267.3125 167.492188 252.304688 C 168.289062 251.253906 169.160156 250.265625 170.105469 249.347656 C 172.777344 247.128906 176.1875 246.050781 178.519531 248.777344 C 179.191406 249.96875 179.636719 251.238281 179.851562 252.589844 C 180.066406 253.9375 180.039062 255.285156 179.769531 256.625 C 179.769531 258.441406 177.664062 260.148438 176.300781 261.738281 C 167.71875 271.632812 158.792969 281.238281 150.492188 291.355469 C 144.777344 298.144531 139.699219 305.382812 135.257812 313.070312 C 131.5625 319.722656 135.257812 324.441406 142.761719 323.984375 C 144.246094 323.957031 145.703125 323.746094 147.136719 323.363281 C 148.566406 322.976562 149.933594 322.425781 151.230469 321.707031 C 152.527344 320.988281 153.71875 320.125 154.804688 319.117188 C 155.894531 318.109375 156.84375 316.984375 157.65625 315.742188 C 167.09375 302.894531 178.007812 291.128906 188.296875 278.964844 C 190.289062 276.515625 192.429688 274.203125 194.71875 272.027344 C 194.980469 271.691406 195.269531 271.382812 195.59375 271.105469 C 195.917969 270.828125 196.265625 270.589844 196.640625 270.382812 C 197.011719 270.179688 197.402344 270.011719 197.808594 269.886719 C 198.21875 269.761719 198.632812 269.679688 199.058594 269.640625 C 199.480469 269.601562 199.90625 269.605469 200.328125 269.65625 C 200.75 269.703125 201.164062 269.792969 201.570312 269.929688 C 201.972656 270.0625 202.359375 270.234375 202.730469 270.449219 C 203.097656 270.664062 203.441406 270.910156 203.757812 271.195312 C 204.078125 271.480469 204.363281 271.792969 204.613281 272.136719 C 204.867188 272.476562 205.082031 272.84375 205.257812 273.230469 C 205.4375 273.617188 205.574219 274.019531 205.667969 274.433594 C 205.761719 274.851562 205.8125 275.269531 205.820312 275.695312 C 205.828125 276.121094 205.792969 276.542969 205.714844 276.964844 C 205.636719 277.382812 205.515625 277.789062 205.351562 278.179688 C 205.1875 278.574219 204.988281 278.949219 204.746094 279.300781 C 204.507812 279.652344 204.234375 279.976562 203.929688 280.269531 C 199.152344 285.957031 193.980469 291.640625 189.035156 297.324219 C 182.441406 305.113281 175.621094 312.730469 169.367188 320.800781 C 168.398438 321.839844 167.570312 322.976562 166.878906 324.210938 C 166.191406 325.449219 165.65625 326.75 165.28125 328.117188 C 164.902344 329.480469 164.695312 330.875 164.65625 332.289062 C 164.617188 333.707031 164.746094 335.105469 165.046875 336.492188 C 166.117188 336.777344 167.207031 336.933594 168.316406 336.964844 C 169.425781 336.996094 170.523438 336.894531 171.609375 336.667969 C 172.695312 336.441406 173.742188 336.09375 174.746094 335.621094 C 175.75 335.148438 176.683594 334.566406 177.550781 333.875 C 184.644531 329.433594 191.355469 324.46875 197.675781 318.984375 C 206.601562 310.96875 214.730469 301.929688 223.484375 293.628906 C 224.589844 292.617188 225.582031 291.503906 226.460938 290.285156 C 227.34375 289.070312 228.089844 287.777344 228.707031 286.410156 C 229.320312 285.042969 229.792969 283.625 230.121094 282.160156 C 230.445312 280.695312 230.621094 279.214844 230.644531 277.714844 C 230.644531 270.210938 232.636719 262.707031 233.089844 254.976562 C 233.035156 250.777344 232.558594 246.628906 231.667969 242.527344 C 230.605469 235.515625 230.183594 228.464844 230.402344 221.378906 C 230.625 214.289062 231.480469 207.277344 232.976562 200.347656 C 233.09375 198.738281 233.09375 197.125 232.976562 195.515625 C 223.140625 194.378906 213.308594 193.582031 203.585938 191.992188 C 194.566406 190.546875 185.640625 188.652344 176.8125 186.304688 C 173.542969 185.308594 170.503906 183.839844 167.691406 181.898438 C 164.875 179.957031 162.421875 177.636719 160.328125 174.9375 C 159.75 174.308594 159.207031 173.652344 158.703125 172.960938 C 158.199219 172.273438 157.738281 171.558594 157.3125 170.820312 C 156.890625 170.078125 156.507812 169.316406 156.171875 168.53125 C 155.832031 167.75 155.539062 166.949219 155.292969 166.132812 C 155.046875 165.316406 154.84375 164.488281 154.691406 163.648438 C 154.535156 162.808594 154.429688 161.960938 154.371094 161.113281 C 154.308594 160.261719 154.300781 159.410156 154.335938 158.554688 C 154.371094 157.703125 154.457031 156.855469 154.589844 156.011719 C 154.722656 155.167969 154.898438 154.335938 155.125 153.511719 C 155.351562 152.691406 155.621094 151.882812 155.941406 151.089844 C 156.257812 150.296875 156.617188 149.527344 157.019531 148.773438 C 157.425781 148.023438 157.871094 147.296875 158.355469 146.59375 C 158.839844 145.890625 159.363281 145.21875 159.925781 144.578125 C 160.488281 143.933594 161.082031 143.324219 161.710938 142.75 C 162.339844 142.171875 163.003906 141.632812 163.691406 141.132812 C 164.382812 140.632812 165.097656 140.171875 165.84375 139.75 C 171.324219 136.5625 177.199219 134.476562 183.464844 133.496094 C 197.390625 131.28125 211.488281 130.085938 225.53125 128.4375 L 231.214844 127.640625 C 222.230469 107.347656 213.761719 87.851562 193.410156 76.480469 C 187.648438 73.878906 181.621094 72.230469 175.335938 71.535156 C 170.796875 70.8125 166.347656 69.726562 161.988281 68.269531 C 157.628906 66.8125 153.417969 65.007812 149.355469 62.855469 C 145.296875 60.707031 141.4375 58.234375 137.785156 55.445312 C 134.132812 52.660156 130.730469 49.589844 127.585938 46.238281 C 120.367188 38.679688 112.863281 31.347656 105.527344 23.84375 C 103.996094 22.394531 102.632812 20.804688 101.4375 19.066406 C 99.105469 15.371094 99.558594 11.734375 102.460938 10.027344 C 102.792969 9.820312 103.144531 9.648438 103.515625 9.507812 C 103.882812 9.367188 104.257812 9.261719 104.644531 9.1875 C 105.035156 9.117188 105.425781 9.085938 105.820312 9.085938 C 106.210938 9.089844 106.601562 9.128906 106.988281 9.207031 C 107.375 9.28125 107.75 9.390625 108.117188 9.539062 C 108.484375 9.683594 108.832031 9.863281 109.164062 10.074219 C 109.496094 10.285156 109.804688 10.527344 110.09375 10.796875 C 110.378906 11.066406 110.640625 11.359375 110.871094 11.675781 C 117.011719 18.15625 123.207031 24.523438 129.347656 30.949219 L 135.03125 36.632812 C 137.867188 39.742188 140.953125 42.578125 144.289062 45.140625 C 147.625 47.703125 151.160156 49.957031 154.894531 51.894531 C 158.628906 53.835938 162.503906 55.433594 166.519531 56.6875 C 170.535156 57.945312 174.628906 58.835938 178.800781 59.371094 C 181.277344 59.683594 183.726562 60.140625 186.148438 60.738281 C 188.570312 61.335938 190.949219 62.074219 193.289062 62.949219 C 195.625 63.824219 197.902344 64.832031 200.121094 65.972656 C 202.339844 67.109375 204.488281 68.375 206.558594 69.765625 C 208.632812 71.152344 210.617188 72.65625 212.515625 74.277344 C 214.414062 75.898438 216.210938 77.621094 217.90625 79.449219 C 219.605469 81.28125 221.191406 83.199219 222.664062 85.214844 C 224.140625 87.226562 225.492188 89.316406 226.722656 91.488281 C 232.972656 101.855469 238.660156 112.523438 243.777344 123.492188 C 245.539062 127.074219 247.300781 129.632812 251.507812 130.144531 C 253.785156 130.46875 256.003906 131.039062 258.15625 131.851562 C 260.3125 132.664062 262.351562 133.703125 264.277344 134.964844 C 266.203125 136.226562 267.96875 137.683594 269.574219 139.335938 C 271.175781 140.984375 272.582031 142.792969 273.792969 144.753906 C 283.984375 158.570312 295.941406 170.640625 309.660156 180.960938 C 311.019531 182.039062 312.316406 183.1875 313.550781 184.40625 C 314.78125 185.625 315.941406 186.910156 317.03125 188.261719 C 318.121094 189.609375 319.132812 191.015625 320.0625 192.476562 C 320.996094 193.941406 321.847656 195.449219 322.609375 197.003906 C 323.375 198.5625 324.050781 200.15625 324.636719 201.789062 C 325.226562 203.417969 325.722656 205.078125 326.125 206.765625 C 326.527344 208.453125 326.832031 210.15625 327.046875 211.875 C 327.257812 213.597656 327.375 215.324219 327.394531 217.058594 C 327.792969 224.390625 328.417969 231.667969 329.042969 239 C 329.332031 242.363281 330.128906 245.597656 331.441406 248.703125 C 332.753906 251.8125 334.511719 254.640625 336.71875 257.191406 C 347.707031 269.851562 358.660156 282.546875 369.574219 295.277344 C 371.492188 297.070312 373.007812 299.15625 374.121094 301.53125 C 374.472656 302.59375 374.554688 303.679688 374.375 304.78125 C 374.195312 305.886719 373.769531 306.886719 373.101562 307.785156 C 372.078125 308.488281 370.957031 308.945312 369.734375 309.152344 C 368.511719 309.363281 367.304688 309.304688 366.109375 308.976562 C 363.796875 307.78125 361.902344 306.113281 360.421875 303.976562 C 349.054688 290.730469 337.683594 277.371094 325.976562 264.183594 C 324.25 262.03125 322.71875 259.75 321.378906 257.335938 C 320.042969 254.921875 318.917969 252.414062 318.007812 249.808594 C 317.097656 247.203125 316.414062 244.542969 315.957031 241.820312 C 315.5 239.101562 315.277344 236.359375 315.289062 233.601562 C 314.890625 226.550781 314.265625 219.503906 313.640625 212.453125 C 313.480469 210.558594 313.136719 208.699219 312.605469 206.871094 C 312.074219 205.046875 311.367188 203.289062 310.484375 201.605469 C 309.601562 199.921875 308.558594 198.339844 307.355469 196.867188 C 306.15625 195.390625 304.820312 194.050781 303.351562 192.84375 C 295.164062 185.851562 287.09375 178.6875 279.53125 171.128906 C 273.449219 165.210938 267.878906 158.84375 262.820312 152.027344 C 261.832031 150.5625 260.6875 149.230469 259.390625 148.03125 C 258.09375 146.832031 256.675781 145.796875 255.132812 144.929688 C 253.59375 144.0625 251.976562 143.382812 250.277344 142.890625 C 248.582031 142.398438 246.847656 142.109375 245.085938 142.023438 C 237.238281 141.484375 229.394531 141.484375 221.550781 142.023438 C 208.816406 143.105469 196.082031 144.921875 183.40625 146.683594 C 180.015625 147.257812 176.796875 148.339844 173.742188 149.925781 C 173.347656 150.085938 172.960938 150.273438 172.585938 150.480469 C 172.214844 150.691406 171.855469 150.921875 171.507812 151.175781 C 171.164062 151.425781 170.832031 151.699219 170.519531 151.992188 C 170.207031 152.285156 169.914062 152.597656 169.640625 152.925781 C 169.367188 153.253906 169.113281 153.601562 168.878906 153.960938 C 168.648438 154.320312 168.4375 154.691406 168.25 155.078125 C 168.066406 155.464844 167.902344 155.859375 167.765625 156.265625 C 167.625 156.667969 167.511719 157.082031 167.425781 157.5 C 167.335938 157.921875 167.273438 158.34375 167.238281 158.769531 C 167.203125 159.195312 167.191406 159.625 167.207031 160.050781 C 167.222656 160.480469 167.265625 160.90625 167.332031 161.328125 C 167.402344 161.753906 167.492188 162.167969 167.613281 162.582031 C 167.730469 162.992188 167.875 163.394531 168.042969 163.789062 C 168.210938 164.183594 168.402344 164.566406 168.617188 164.9375 C 168.832031 165.308594 169.070312 165.664062 169.328125 166.003906 C 169.585938 166.347656 169.863281 166.671875 170.164062 166.980469 C 171.25 168.308594 172.445312 169.527344 173.75 170.640625 C 175.058594 171.753906 176.453125 172.738281 177.941406 173.597656 C 179.425781 174.457031 180.976562 175.175781 182.59375 175.753906 C 184.207031 176.332031 185.863281 176.761719 187.558594 177.039062 C 197.789062 179.085938 208.191406 180.453125 218.539062 181.984375 C 224.222656 182.839844 229.90625 183.179688 235.589844 184.089844 C 242.925781 185.226562 245.027344 187.785156 244.96875 195.117188 C 244.921875 198.003906 244.617188 200.867188 244.0625 203.699219 C 241.71875 216.964844 241.71875 230.230469 244.0625 243.492188 C 244.417969 246.230469 245.003906 248.921875 245.816406 251.5625 C 246.632812 254.203125 247.664062 256.753906 248.910156 259.21875 C 250.160156 261.683594 251.609375 264.023438 253.257812 266.238281 C 254.90625 268.457031 256.726562 270.519531 258.726562 272.425781 C 261.398438 274.984375 264.015625 277.542969 266.515625 280.214844 C 270.664062 284.589844 271.460938 288.515625 269.015625 291.242188 C 266.570312 293.972656 262.136719 293.402344 257.648438 288.855469 C 254.238281 285.632812 250.9375 282.28125 247.757812 278.792969 C 246.824219 277.488281 246.03125 276.105469 245.367188 274.644531 L 243.605469 275.667969 C 243.054688 276.980469 242.714844 278.34375 242.582031 279.761719 C 242.660156 281.800781 242.507812 283.824219 242.125 285.828125 C 241.738281 287.835938 241.132812 289.773438 240.304688 291.640625 C 239.476562 293.507812 238.449219 295.253906 237.222656 296.886719 C 235.996094 298.519531 234.597656 299.992188 233.03125 301.304688 L 208.816406 325.976562 C 207.226562 327.679688 205.746094 329.441406 203.132812 332.511719 C 206.457031 333.769531 209.886719 334.585938 213.421875 334.957031 C 220.1875 334.347656 226.894531 333.339844 233.542969 331.945312 C 239.230469 330.863281 244.914062 329.101562 250.257812 327.738281 C 252.292969 327.160156 254.371094 326.832031 256.488281 326.753906 C 258.605469 326.679688 260.699219 326.855469 262.773438 327.285156 C 264.847656 327.714844 266.839844 328.386719 268.75 329.300781 C 270.660156 330.214844 272.4375 331.339844 274.074219 332.683594 C 282.074219 339.65625 289.691406 347.027344 296.925781 354.796875 C 297.285156 355.0625 297.613281 355.363281 297.910156 355.699219 C 298.207031 356.039062 298.460938 356.402344 298.679688 356.792969 C 298.894531 357.183594 299.066406 357.597656 299.195312 358.023438 C 299.324219 358.453125 299.40625 358.890625 299.441406 359.339844 C 299.476562 359.785156 299.460938 360.230469 299.402344 360.671875 C 299.339844 361.117188 299.234375 361.550781 299.078125 361.96875 C 298.925781 362.390625 298.730469 362.789062 298.488281 363.167969 C 298.25 363.546875 297.972656 363.894531 297.65625 364.214844 C 297.34375 364.53125 296.996094 364.816406 296.621094 365.058594 C 296.246094 365.304688 295.851562 365.507812 295.433594 365.664062 C 295.011719 365.824219 294.582031 365.9375 294.140625 366.003906 C 293.695312 366.070312 293.25 366.089844 292.804688 366.0625 C 292.359375 366.03125 291.917969 365.957031 291.488281 365.832031 C 291.058594 365.710938 290.644531 365.542969 290.25 365.332031 C 289.855469 365.121094 289.488281 364.867188 289.148438 364.578125 C 288.808594 364.285156 288.5 363.964844 288.230469 363.605469 C 283.285156 358.886719 278.394531 354.113281 273.792969 349.109375 C 272.9375 348.070312 272.011719 347.101562 271.007812 346.203125 C 270.003906 345.308594 268.933594 344.496094 267.804688 343.769531 C 266.671875 343.039062 265.488281 342.402344 264.257812 341.859375 C 263.027344 341.316406 261.761719 340.871094 260.460938 340.527344 C 259.160156 340.183594 257.839844 339.941406 256.5 339.804688 C 255.164062 339.664062 253.820312 339.632812 252.476562 339.707031 C 251.132812 339.777344 249.804688 339.953125 248.488281 340.234375 C 247.171875 340.515625 245.886719 340.898438 244.628906 341.378906 C 237.328125 343.460938 229.9375 345.167969 222.460938 346.496094 C 219.941406 347.105469 217.386719 347.425781 214.792969 347.453125 C 212.203125 347.480469 209.640625 347.214844 207.109375 346.660156 C 204.578125 346.101562 202.140625 345.269531 199.800781 344.15625 C 197.457031 343.042969 195.273438 341.683594 193.242188 340.074219 C 189.703125 342.269531 186.007812 344.164062 182.15625 345.757812 C 176.738281 347.691406 171.167969 348.941406 165.445312 349.507812 C 157.085938 350.019531 153.109375 346.210938 151.402344 338.140625 C 151.402344 337.171875 151.0625 336.148438 151.0625 336.265625 C 143.957031 335.625 136.984375 334.300781 130.144531 332.285156 C 122.753906 329.386719 121.730469 321.597656 121.105469 313.640625 C 107.007812 313.640625 97.398438 307.328125 94.957031 292.152344 L 87.109375 291.640625 C 76.140625 291.015625 65.113281 290.84375 54.140625 289.652344 C 48.644531 289.058594 43.453125 287.464844 38.566406 284.875 C 23.730469 276.917969 20.488281 264.355469 28.390625 248.382812 C 18.273438 234.226562 17.816406 226.609375 26.117188 215.636719 C 22.589844 210.183594 19.480469 204.5 16.792969 198.585938 C 14.40625 191.933594 17.988281 186.363281 23.273438 181.871094 C 21.058594 177.550781 18.667969 173.515625 16.964844 169.253906 C 11.960938 156.347656 15.65625 148.277344 28.902344 144.640625 C 34.804688 143.402344 40.773438 142.777344 46.808594 142.761719 C 51.070312 142.535156 55.222656 142.707031 60.167969 142.707031 Z M 88.589844 179.3125 C 93.648438 178.972656 102.289062 178.6875 110.816406 177.550781 C 116.5 176.8125 117.976562 173.0625 116.5 167.71875 C 116.1875 166.570312 115.730469 165.480469 115.128906 164.453125 C 114.527344 163.425781 113.804688 162.496094 112.953125 161.660156 C 112.105469 160.828125 111.164062 160.121094 110.125 159.535156 C 109.085938 158.953125 107.992188 158.515625 106.835938 158.226562 C 103.566406 157.253906 100.234375 156.648438 96.832031 156.40625 C 79.324219 155.667969 61.816406 154.925781 44.25 154.699219 C 40.078125 155.007812 36.023438 155.859375 32.085938 157.257812 C 31.792969 157.292969 31.503906 157.359375 31.222656 157.453125 C 30.945312 157.550781 30.679688 157.675781 30.425781 157.832031 C 30.171875 157.984375 29.941406 158.164062 29.726562 158.367188 C 29.511719 158.574219 29.324219 158.800781 29.15625 159.042969 C 28.992188 159.289062 28.855469 159.550781 28.75 159.828125 C 28.640625 160.101562 28.5625 160.386719 28.515625 160.679688 C 28.46875 160.972656 28.453125 161.265625 28.472656 161.558594 C 28.488281 161.855469 28.539062 162.144531 28.617188 162.429688 C 28.773438 163.429688 29.015625 164.40625 29.339844 165.367188 C 29.660156 166.324219 30.0625 167.246094 30.539062 168.136719 C 31.019531 169.027344 31.570312 169.871094 32.191406 170.667969 C 32.8125 171.464844 33.496094 172.207031 34.242188 172.886719 C 34.988281 173.570312 35.785156 174.183594 36.636719 174.730469 C 37.484375 175.277344 38.375 175.75 39.304688 176.148438 C 40.234375 176.546875 41.191406 176.863281 42.171875 177.097656 C 43.15625 177.332031 44.152344 177.484375 45.160156 177.550781 C 58.175781 178.175781 71.648438 178.632812 88.589844 179.542969 Z M 91.148438 280.214844 C 97.125 279.683594 103.054688 278.832031 108.941406 277.65625 C 109.25 277.613281 109.558594 277.554688 109.863281 277.476562 C 110.167969 277.398438 110.46875 277.300781 110.761719 277.191406 C 111.054688 277.078125 111.339844 276.945312 111.617188 276.800781 C 111.894531 276.652344 112.164062 276.492188 112.421875 276.3125 C 112.683594 276.136719 112.929688 275.945312 113.167969 275.738281 C 113.40625 275.53125 113.628906 275.3125 113.839844 275.078125 C 114.050781 274.84375 114.246094 274.601562 114.429688 274.34375 C 114.613281 274.089844 114.777344 273.824219 114.929688 273.546875 C 115.082031 273.273438 115.21875 272.988281 115.335938 272.699219 C 115.453125 272.40625 115.554688 272.109375 115.636719 271.804688 C 115.722656 271.503906 115.789062 271.195312 115.835938 270.886719 C 115.882812 270.574219 115.914062 270.261719 115.925781 269.949219 C 115.9375 269.632812 115.929688 269.320312 115.902344 269.007812 C 115.878906 268.695312 115.835938 268.382812 115.773438 268.074219 C 115.710938 267.765625 115.632812 267.464844 115.535156 267.164062 C 115.4375 266.867188 115.324219 266.574219 115.191406 266.289062 C 115.003906 265.4375 114.734375 264.613281 114.382812 263.816406 C 114.03125 263.023438 113.605469 262.269531 113.101562 261.558594 C 112.601562 260.847656 112.035156 260.191406 111.402344 259.59375 C 110.769531 258.996094 110.082031 258.46875 109.34375 258.007812 C 108.605469 257.546875 107.828125 257.164062 107.011719 256.855469 C 106.199219 256.550781 105.359375 256.328125 104.5 256.191406 C 103.640625 256.054688 102.777344 256 101.90625 256.035156 C 101.035156 256.070312 100.179688 256.191406 99.332031 256.394531 C 97.261719 256.714844 95.175781 256.867188 93.078125 256.851562 C 77.449219 256.226562 61.757812 255.601562 46.183594 254.691406 C 40.5 254.691406 36.519531 257.703125 37.371094 263.273438 C 37.507812 264.566406 37.863281 265.792969 38.441406 266.957031 C 39.019531 268.121094 39.78125 269.148438 40.726562 270.039062 C 44.300781 273.035156 48.355469 275.082031 52.890625 276.179688 C 65.28125 278.167969 77.84375 278.964844 91.148438 280.214844 Z M 80.515625 246.109375 C 89.820312 245.101562 99.027344 243.546875 108.144531 241.445312 C 116.726562 239 118.035156 230.644531 112.066406 224.390625 C 109.222656 221.210938 105.871094 222.117188 102.628906 222.515625 C 84.914062 224.484375 67.195312 224.484375 49.480469 222.515625 C 45.59375 222.230469 41.804688 222.703125 38.109375 223.9375 C 37.851562 223.992188 37.59375 224.0625 37.34375 224.152344 C 37.09375 224.238281 36.847656 224.34375 36.613281 224.460938 C 36.375 224.582031 36.144531 224.714844 35.925781 224.867188 C 35.707031 225.015625 35.5 225.179688 35.300781 225.355469 C 35.101562 225.53125 34.917969 225.722656 34.742188 225.921875 C 34.570312 226.125 34.410156 226.335938 34.265625 226.558594 C 34.117188 226.78125 33.988281 227.011719 33.871094 227.25 C 33.757812 227.492188 33.65625 227.734375 33.574219 227.988281 C 33.492188 228.242188 33.425781 228.496094 33.375 228.757812 C 33.324219 229.019531 33.292969 229.28125 33.277344 229.546875 C 33.265625 229.8125 33.265625 230.078125 33.285156 230.34375 C 33.304688 230.609375 33.34375 230.871094 33.398438 231.132812 C 33.449219 231.390625 33.523438 231.648438 33.609375 231.898438 C 33.695312 232.148438 33.800781 232.394531 33.921875 232.628906 C 34.039062 232.867188 34.175781 233.097656 34.324219 233.316406 C 34.472656 233.535156 34.636719 233.746094 34.8125 233.941406 C 36.417969 236.300781 38.523438 238.0625 41.125 239.230469 C 53.628906 244.800781 67.046875 244.742188 80.515625 246.222656 Z M 69.546875 190.910156 L 49.878906 190.910156 C 45.445312 190.625 41.011719 190.625 36.574219 190.910156 C 34.246094 191.25 30.890625 192.785156 30.324219 194.546875 C 30.171875 195.816406 30.324219 197.046875 30.777344 198.242188 C 31.226562 199.4375 31.929688 200.460938 32.882812 201.3125 C 36.75 204.429688 41.03125 206.800781 45.726562 208.417969 C 52.855469 210.226562 60.085938 211.382812 67.421875 211.886719 C 74.757812 212.394531 82.078125 212.242188 89.386719 211.433594 C 96.953125 210.925781 104.417969 209.769531 111.78125 207.964844 C 112.328125 207.816406 112.851562 207.613281 113.351562 207.359375 C 113.855469 207.101562 114.328125 206.796875 114.769531 206.445312 C 115.210938 206.09375 115.609375 205.703125 115.972656 205.269531 C 116.332031 204.835938 116.644531 204.371094 116.910156 203.871094 C 117.179688 203.375 117.390625 202.855469 117.550781 202.316406 C 117.710938 201.773438 117.816406 201.222656 117.863281 200.660156 C 117.910156 200.097656 117.902344 199.539062 117.835938 198.976562 C 117.769531 198.417969 117.644531 197.871094 117.464844 197.335938 C 116.386719 192.785156 113.375 191.136719 108.03125 191.195312 C 95.183594 190.910156 82.335938 190.910156 69.546875 190.910156 Z M 69.546875 190.910156 " fill-opacity="1" fill-rule="nonzero"/></g></svg>