<svg xmlns="http://www.w3.org/2000/svg" xmlns:xlink="http://www.w3.org/1999/xlink" width="500" zoomAndPan="magnify" viewBox="0 0 375 374.999991" height="500" preserveAspectRatio="xMidYMid meet" version="1.0"><defs><clipPath id="2aea3de87b"><path d="M 189.132812 190.667969 L 358.363281 190.667969 L 358.363281 374.960938 L 189.132812 374.960938 Z M 189.132812 190.667969 " clip-rule="nonzero"/></clipPath></defs><path fill="#4caf50" d="M 51.285156 174.789062 C 49.503906 184.785156 48.019531 204.433594 36.320312 228.191406 C 24.625 251.945312 16.644531 296.042969 63.753906 315.042969 C 110.867188 334.039062 134.898438 320.597656 161.992188 294.25 C 177.335938 279.332031 190.238281 259.628906 193.890625 254.238281 C 200.882812 243.925781 192.375 238.796875 186.3125 240.558594 C 174.304688 244.054688 162.726562 260.835938 153.453125 258 C 146.71875 255.9375 150.316406 246.890625 158.878906 233.539062 C 172.007812 213.0625 176.46875 198.253906 178.605469 188.335938 C 182.742188 169.101562 170.914062 161.957031 162.128906 175.683594 C 153.34375 189.410156 144.898438 211.195312 133.945312 206.816406 C 125.164062 203.304688 141.394531 171.585938 143.996094 162.023438 C 147.257812 150.039062 142.933594 142.039062 135.070312 141.941406 C 130.804688 141.890625 126.847656 146.167969 123.589844 158.152344 C 119.398438 173.558594 117.820312 199.855469 106.175781 197.011719 C 96.6875 194.691406 104.597656 169.410156 107.515625 157.542969 C 110.730469 144.484375 105.492188 140.289062 100.730469 139.738281 C 95.96875 139.1875 89.628906 144.519531 86.921875 159.382812 C 84.296875 173.78125 84.375 200.234375 76.222656 199.144531 C 69.507812 198.242188 71.519531 187.285156 72.273438 172.066406 C 73.027344 156.851562 67.132812 152.363281 62.050781 151.933594 C 56.972656 151.503906 53.546875 162.09375 51.285156 174.789062 " fill-opacity="1" fill-rule="nonzero"/><g clip-path="url(#2aea3de87b)"><path fill="#5271ff" d="M 334.425781 225.792969 C 336.207031 235.789062 337.691406 255.4375 349.390625 279.195312 C 361.085938 302.949219 369.066406 347.046875 321.957031 366.046875 C 274.84375 385.042969 250.8125 371.601562 223.71875 345.253906 C 208.375 330.335938 195.472656 310.632812 191.816406 305.242188 C 184.828125 294.929688 193.335938 289.800781 199.398438 291.566406 C 211.402344 295.058594 222.984375 311.839844 232.257812 309.003906 C 238.992188 306.945312 235.390625 297.894531 226.832031 284.546875 C 213.703125 264.066406 209.238281 249.257812 207.109375 239.339844 C 202.96875 220.105469 214.796875 212.960938 223.582031 226.6875 C 232.367188 240.414062 240.8125 262.203125 251.765625 257.820312 C 260.546875 254.308594 244.316406 222.589844 241.714844 213.027344 C 238.453125 201.042969 242.777344 193.042969 250.644531 192.945312 C 254.90625 192.894531 258.863281 197.171875 262.121094 209.15625 C 266.3125 224.5625 267.890625 250.859375 279.535156 248.015625 C 289.023438 245.695312 281.113281 220.414062 278.191406 208.546875 C 274.980469 195.488281 280.214844 191.296875 284.980469 190.742188 C 289.742188 190.191406 296.082031 195.523438 298.789062 210.390625 C 301.410156 224.785156 301.339844 251.238281 309.484375 250.148438 C 316.203125 249.25 314.1875 238.289062 313.433594 223.070312 C 312.679688 207.855469 318.578125 203.367188 323.65625 202.9375 C 328.738281 202.507812 332.164062 213.097656 334.425781 225.792969 " fill-opacity="1" fill-rule="nonzero"/></g><path fill="#4caf50" d="M 203.972656 140.121094 C 193.21875 125.230469 164.128906 73.714844 174.5 42.96875 C 190.875 73.171875 191.054688 92.636719 205.976562 93.726562 C 220.894531 94.816406 225.738281 95.09375 229.988281 83.722656 C 243.453125 47.699219 260.734375 44.972656 260.734375 44.972656 C 269.105469 87.722656 233.808594 127.746094 209.066406 153.945312 C 195.269531 168.554688 193.058594 171.046875 199.605469 173.230469 C 206.15625 175.414062 212.523438 178.871094 246.542969 148.125 C 273.476562 123.785156 322.957031 78.261719 305.851562 37.511719 C 296.824219 15.988281 251.09375 0.0351562 216.707031 50.609375 C 208.339844 30.597656 182.871094 6.582031 150.121094 26.59375 C 114.941406 48.097656 165.769531 137.207031 182.871094 143.394531 C 199.96875 149.578125 208.703125 146.667969 203.972656 140.121094 " fill-opacity="1" fill-rule="nonzero"/><path fill="#5271ff" d="M 203.972656 140.121094 C 193.21875 125.230469 164.128906 73.714844 174.5 42.96875 C 190.875 73.171875 191.054688 92.636719 205.976562 93.726562 C 215.382812 94.417969 220.785156 94.773438 224.558594 92.097656 C 224.9375 78.136719 222.304688 63.265625 216.847656 50.410156 C 216.800781 50.476562 216.753906 50.542969 216.707031 50.609375 C 208.339844 30.597656 182.871094 6.582031 150.121094 26.59375 C 114.941406 48.097656 165.769531 137.207031 182.871094 143.394531 C 199.96875 149.578125 208.703125 146.667969 203.972656 140.121094 " fill-opacity="1" fill-rule="nonzero"/></svg>